<?xml version="1.0" encoding="UTF-8"?>
<svg version="1.1" xmlns="http://www.w3.org/2000/svg" width="1024" height="1024">
<path d="M0 0 C3.96164374 0.46787063 6.09491137 1.00592997 8.82275391 4.00195312 C10.74486812 6.70035617 12.54298596 9.44913447 14.3125 12.25 C15.6394666 14.27419737 16.9675903 16.29763667 18.296875 18.3203125 C19.25303711 19.79419434 19.25303711 19.79419434 20.22851562 21.29785156 C22.41963342 24.64009133 24.7118323 27.89394727 27.0625 31.125 C32.28375239 38.36540002 37.40772671 45.67229353 42.5 53.00390625 C44.74758999 56.23388244 47.03642368 59.42519973 49.375 62.58984375 C49.89328369 63.30479004 50.41156738 64.01973633 50.94555664 64.75634766 C51.91078101 66.08659142 52.89090364 67.40620472 53.88842773 68.71240234 C55.99877165 71.65693875 57.0403193 73.41078624 56.78955078 77.07543945 C55.93173135 81.89397852 54.54027428 86.57644373 53.18359375 91.2734375 C52.89626877 92.28248642 52.60894379 93.29153534 52.31291199 94.3311615 C51.68815741 96.52339525 51.06133227 98.71503974 50.43267822 100.90615845 C49.06029941 105.68978868 47.69798069 110.47626732 46.33502197 115.2625885 C45.61917304 117.7761893 44.90281606 120.28964547 44.18597412 122.80296326 C40.94385506 134.1752075 37.75094171 145.56091802 34.56588745 156.94924927 C26.9690394 184.10457453 19.26106603 211.22795274 11.54656982 238.35003662 C4.93101169 261.60917746 -1.67401467 284.87052989 -8.17007446 308.16339111 C-11.57382903 320.36688275 -15.00350263 332.56272466 -18.46484375 344.75 C-18.66062767 345.43935827 -18.85641159 346.12871655 -19.05812836 346.83896446 C-20.27107095 351.10930553 -21.48446504 355.37951826 -22.69791412 359.64971542 C-29.02540384 381.91673731 -35.30302712 404.19622961 -41.5 426.5 C-47.48866281 448.04718075 -53.52915722 469.57907327 -59.62283325 491.09677124 C-60.24130486 493.28178079 -60.85893892 495.46702538 -61.47631836 497.65234375 C-63.66037077 505.38056813 -65.85985251 513.1039795 -68.0871582 520.81988525 C-68.90934236 523.68417123 -69.71335077 526.55289202 -70.51367188 529.42333984 C-70.94019311 530.90106684 -71.36779892 532.37848156 -71.796875 533.85546875 C-72.13557617 535.05196045 -72.47427734 536.24845215 -72.82324219 537.48120117 C-74 540 -74 540 -76.13769531 540.8840332 C-76.75225586 540.92230225 -77.36681641 540.96057129 -78 541 C-80.46572562 535.47387376 -82.48514041 529.87006626 -84.4140625 524.13671875 C-84.90424362 522.69112328 -84.90424362 522.69112328 -85.40432739 521.21632385 C-86.48044512 518.04090976 -87.55268204 514.86419904 -88.625 511.6875 C-89.38283848 509.44944282 -90.14098158 507.21148877 -90.89941406 504.97363281 C-92.47809156 500.31469679 -94.05545108 495.65531771 -95.63183594 490.99560547 C-98.97214475 481.12458439 -102.32631271 471.25827933 -105.68148804 461.39230347 C-106.75198357 458.24416668 -107.82194948 455.09585027 -108.8918457 451.94750977 C-112.0959126 442.52133466 -115.3051962 433.09702495 -118.53515625 423.6796875 C-118.81614166 422.86008545 -119.09712708 422.0404834 -119.3866272 421.19604492 C-120.65172909 417.50656895 -121.91823718 413.81759313 -123.18847656 410.12988281 C-126.72897405 399.82848818 -130.1737367 389.49557973 -133.61328125 379.16015625 C-139.55215156 361.31482624 -145.55211042 343.4905611 -151.57656479 325.67396164 C-152.39244312 323.26091002 -153.20804877 320.84776637 -154.02359009 318.43460083 C-160.22203547 300.09444598 -166.42661246 281.75645391 -172.6875 263.4375 C-172.95191895 262.66344818 -173.21633789 261.88939636 -173.48876953 261.09188843 C-176.29242898 252.88630201 -179.10738193 244.68468404 -181.9344635 236.48713684 C-183.26331184 232.63167231 -184.5887278 228.77503228 -185.91372681 224.91824341 C-186.85140416 222.19356418 -187.79415623 219.4706766 -188.73706055 216.74780273 C-189.30154652 215.10540116 -189.86577013 213.46290939 -190.4296875 211.8203125 C-190.82222969 210.69395638 -190.82222969 210.69395638 -191.22270203 209.54484558 C-192.23894096 206.56967709 -193 204.16777496 -193 201 C-193.66 201 -194.32 201 -195 201 C-195.16109253 201.87942261 -195.16109253 201.87942261 -195.32543945 202.77661133 C-196.61129482 209.52025241 -198.31167382 216.08611622 -200.1875 222.6875 C-200.45369141 223.64205078 -200.71988281 224.59660156 -200.99414062 225.58007812 C-202.66489823 231.50918392 -204.42329174 237.40624804 -206.23042297 243.29492188 C-211.26672832 259.70823659 -216.02053556 276.20137362 -220.78083038 292.69630051 C-222.00682609 296.94314273 -223.23474798 301.18942804 -224.46240234 305.43579102 C-230.14487805 325.09415048 -235.81654305 344.75563511 -241.48419189 364.41827393 C-247.03672375 383.68091632 -252.60963033 402.93763973 -258.18846893 422.19267654 C-258.87152648 424.55050983 -259.55435642 426.90840893 -260.23712158 429.2663269 C-261.30858183 432.96646511 -262.38066328 436.66642276 -263.45323944 440.36623764 C-263.85127482 441.73957406 -264.24911008 443.1129685 -264.64673615 444.48642349 C-265.19344822 446.37465826 -265.74098983 448.26265278 -266.28857422 450.15063477 C-266.59640839 451.21290787 -266.90424255 452.27518097 -267.22140503 453.36964417 C-267.78004001 455.25690113 -268.37760046 457.13280138 -269 459 C-296.39 459 -323.78 459 -352 459 C-349.07611272 447.88922834 -346.1605984 436.86237561 -342.83984375 425.87890625 C-342.45313269 424.59057133 -342.06675605 423.30213599 -341.68067932 422.01361084 C-340.86152816 419.28141089 -340.04064062 416.54974209 -339.21826172 413.81851196 C-336.99027272 406.41789618 -334.77485236 399.01351025 -332.55859375 391.609375 C-332.32999538 390.84601145 -332.10139702 390.0826479 -331.86587143 389.29615211 C-326.90007902 372.71076513 -322.01239821 356.10273501 -317.13885498 339.49004745 C-311.3372591 319.71521477 -305.51747238 299.94688859 -299.57080078 280.21508789 C-295.37468888 266.28611352 -291.23754589 252.33978263 -287.10305786 238.39242554 C-278.24517519 208.51201396 -269.32482585 178.65083487 -260.34716797 148.80615234 C-258.4794852 142.59719648 -256.61527929 136.38720123 -254.75197411 130.17693043 C-252.99603016 124.32500331 -251.23794842 118.473721 -249.47835732 112.62288952 C-248.4228323 109.1129842 -247.3681474 105.60283215 -246.31567383 102.0920105 C-245.15228769 98.21146465 -243.98453341 94.33224634 -242.81640625 90.453125 C-242.30201744 88.73395622 -242.30201744 88.73395622 -241.77723694 86.98005676 C-238.28792541 75.41947043 -238.28792541 75.41947043 -236 70 C-233.12677518 68.56338759 -230.65350423 68.86476099 -227.44238281 68.85473633 C-226.76897858 68.85137772 -226.09557434 68.8480191 -225.40176392 68.84455872 C-223.16886564 68.83503744 -220.93604233 68.83310472 -218.703125 68.83203125 C-217.15093963 68.82881841 -215.59875456 68.82545432 -214.04656982 68.82194519 C-210.78820087 68.81595023 -207.52985845 68.81410556 -204.27148438 68.81469727 C-200.10417365 68.81479866 -195.93703416 68.8011712 -191.76976395 68.78392506 C-188.56121038 68.77278129 -185.35269782 68.77077882 -182.14412689 68.77130699 C-180.60840009 68.77012951 -179.07267214 68.76572074 -177.53696442 68.75797462 C-175.38292138 68.74813093 -173.22924478 68.7510703 -171.07519531 68.75708008 C-169.85100891 68.75565506 -168.62682251 68.75423004 -167.36553955 68.75276184 C-163.83841816 69.01187007 -161.20221517 69.49076727 -158 71 C-156.66241455 73.0262146 -156.66241455 73.0262146 -155.82519531 75.55615234 C-155.49718933 76.50771713 -155.16918335 77.45928192 -154.83123779 78.43968201 C-154.50021057 79.47794632 -154.16918335 80.51621063 -153.828125 81.5859375 C-153.46406555 82.66178604 -153.1000061 83.73763458 -152.72491455 84.84608459 C-151.54472605 88.34881949 -150.39758359 91.8614633 -149.25 95.375 C-148.4445747 97.78217515 -147.63662752 100.18850796 -146.82617188 102.59399414 C-145.24133442 107.30294242 -143.66644349 112.01501303 -142.09960938 116.72998047 C-139.67375723 124.00631667 -137.11934238 131.22875325 -134.5 138.4375 C-131.37099438 147.12365105 -128.31244653 155.8309237 -125.3125 164.5625 C-116.35333146 190.62961955 -107.37152116 216.68892963 -97.88909912 242.57113647 C-93.09450612 255.65835459 -88.50139062 268.80871282 -84 282 C-82.227032 278.75556614 -81.19520855 275.52937853 -80.19433594 271.97485352 C-79.84420441 270.73916626 -79.49407288 269.503479 -79.1333313 268.23034668 C-78.75029602 266.86321383 -78.36731232 265.49606654 -77.984375 264.12890625 C-77.57726977 262.68702767 -77.16977909 261.24525788 -76.76193237 259.80358887 C-75.88312612 256.69455741 -75.00672046 253.584863 -74.13214111 250.47463989 C-72.73493163 245.50649884 -71.33174742 240.54005851 -69.92724609 235.57397461 C-69.4444269 233.86665361 -68.9616083 232.15933244 -68.47879028 230.45201111 C-68.11619802 229.169894 -68.11619802 229.169894 -67.74628067 227.86187553 C-67.00104412 225.22606105 -66.25630075 222.59010766 -65.51168823 219.95411682 C-60.24590666 201.31508578 -54.94444883 182.68628093 -49.625 164.0625 C-49.39334766 163.25142918 -49.16169533 162.44035835 -48.92302322 161.60470963 C-41.07268537 134.12377096 -33.11458214 106.6768556 -24.97387695 79.28033447 C-23.91894189 75.72696992 -22.86649254 72.17287525 -21.81445312 68.61865234 C-19.90007303 62.1511693 -17.9817093 55.68487715 -16.06069946 49.21936035 C-15.32546082 46.74378057 -14.59103369 44.2679596 -13.85751343 41.79187012 C-10.54768995 30.62555623 -7.23004576 19.46648567 -3.56640625 8.41015625 C-3.31906235 7.66124619 -3.07171844 6.91233612 -2.81687927 6.14073181 C-1.12747476 1.12747476 -1.12747476 1.12747476 0 0 Z " fill="#0058FE" transform="translate(538,234)"/>
<path d="M0 0 C35.4149941 -0.09167246 70.8299673 -0.16209799 106.24505574 -0.20426132 C110.43168123 -0.20926379 114.61830649 -0.21444112 118.80493164 -0.21972656 C119.63836912 -0.2207758 120.4718066 -0.22182505 121.33049976 -0.22290608 C134.80311039 -0.24028359 148.27565233 -0.27180655 161.7482223 -0.30861118 C175.58529229 -0.34609466 189.42232646 -0.36825147 203.25944513 -0.37635398 C211.78904023 -0.38182644 220.31844115 -0.3990738 228.84797644 -0.43166587 C234.70701254 -0.45290534 240.56594913 -0.45917885 246.42502088 -0.45400551 C249.799156 -0.45145822 253.17268251 -0.4574278 256.54680252 -0.4768219 C277.2841709 -0.59012375 296.21828884 0.17428689 312.22265625 15.1640625 C322.06911803 25.33513291 325.17762819 36.92114372 325.3125 50.75 C325.34150391 51.69488281 325.37050781 52.63976562 325.40039062 53.61328125 C325.45134489 59.50045858 324.70531441 64.75712761 323.23339844 70.46166992 C322.96521474 71.506048 322.96521474 71.506048 322.6916132 72.57152462 C320.83200743 79.76137003 318.84941702 86.91724768 316.83984375 94.06640625 C316.44945171 95.46154212 316.05924887 96.85673095 315.66921997 98.25196838 C314.63993355 101.93181256 313.6079138 105.61088442 312.57521439 109.28977203 C311.71470925 112.35649616 310.85578567 115.42366232 309.99687481 118.49083328 C307.51112429 127.36742547 305.02091931 136.24276287 302.52861023 145.11751556 C301.7626196 147.84535806 300.99706878 150.57332397 300.23144531 153.30126953 C297.81156806 161.92029955 295.38308777 170.53681768 292.93933105 179.14910889 C291.51315543 184.17811499 290.09860812 189.21030151 288.68806458 194.24371338 C287.61917955 198.05275432 286.54437102 201.86010935 285.46847534 205.66717529 C284.95966951 207.47204323 284.4531456 209.27755651 283.94924927 211.08380127 C277.94982869 232.57604011 271.15515352 252.04066154 256 269 C255.19175781 269.94939453 255.19175781 269.94939453 254.3671875 270.91796875 C241.11773951 285.46572948 220.10652561 293.27937716 200.83714294 294.38496208 C195.12594593 294.59510263 189.41550219 294.59548395 183.70117188 294.59350586 C181.52443881 294.60718571 179.34771577 294.6225444 177.17100525 294.63943481 C171.31879953 294.6797676 165.46676877 294.69579747 159.61444283 294.70629954 C153.47479673 294.72068869 147.33525684 294.75509753 141.19567871 294.78651428 C130.90732395 294.83602468 120.61901022 294.86973486 110.33056641 294.89379883 C98.42742545 294.92182726 86.52458889 294.97473663 74.62160254 295.04078192 C63.15480151 295.10387632 51.6879937 295.15002559 40.22108459 295.18820381 C35.34387541 295.2047162 30.46674576 295.22713788 25.58958435 295.25425529 C19.86358493 295.28529665 14.13773339 295.30153505 8.41165352 295.30609512 C6.30646178 295.31016957 4.20127307 295.31941096 2.09612846 295.33407402 C-0.76629431 295.35316646 -3.6281314 295.35389678 -6.49060059 295.34971619 C-7.33239632 295.35961718 -8.17419206 295.36951817 -9.04149675 295.3797192 C-11.35274506 295.36469936 -11.35274506 295.36469936 -15 295 C-17 292 -17 292 -16.68310547 289.92333984 C-16.41385254 289.11074707 -16.14459961 288.2981543 -15.8671875 287.4609375 C-15.40856323 286.03007813 -15.40856323 286.03007813 -14.94067383 284.5703125 C-14.41316528 282.98863281 -14.41316528 282.98863281 -13.875 281.375 C-13.1220606 279.05084898 -12.37369356 276.72521372 -11.62890625 274.3984375 C-11.42430283 273.76129822 -11.2196994 273.12415894 -11.00889587 272.4677124 C-9.19502855 266.75672673 -7.57101494 260.99890101 -5.96484375 255.2265625 C-5.43865635 253.35488413 -4.91212561 251.48330226 -4.38525391 249.61181641 C-3.5961718 246.80833649 -2.81354897 244.00386639 -2.05096436 241.1930542 C-1.32967238 238.53984986 -0.5834458 235.89480501 0.16796875 233.25 C0.37929947 232.44591705 0.59063019 231.64183411 0.80836487 230.81338501 C2.39936434 225.33709299 2.39936434 225.33709299 5.15574551 223.79013729 C8.56672528 222.84256304 11.50742628 222.76338575 15.05030823 222.77967834 C15.74848457 222.78008619 16.44666091 222.78049404 17.16599411 222.78091425 C19.49954935 222.78463707 21.83277353 222.80265187 24.16625977 222.82055664 C25.84208408 222.82603382 27.51791165 222.83058297 29.19374084 222.83427429 C32.80106306 222.84398142 36.40828864 222.85980603 40.01556587 222.88023567 C45.7278873 222.91209174 51.44018085 222.92755543 57.15257263 222.94029236 C71.34670677 222.97436039 85.54076575 223.0268741 99.73480225 223.0894165 C110.7567347 223.13796407 121.77859719 223.18002295 132.80062145 223.20092481 C138.46996636 223.21240009 144.13902294 223.23772778 149.80826294 223.27367222 C153.34988727 223.29297974 156.89145442 223.2995582 160.43312645 223.30273628 C162.06485761 223.30672697 163.69658634 223.31583847 165.3282547 223.33069992 C177.28539842 223.43560026 190.55371505 223.40613222 200 215 C209.53931736 204.57699291 212.06482194 187.53717541 215.70626831 174.23187256 C220.45440402 156.89872993 225.39040009 139.62326448 230.4375 122.375 C230.73018768 121.37437531 231.02287537 120.37375061 231.32443237 119.34280396 C232.17261657 116.44447543 233.02181092 113.54644426 233.87109375 110.6484375 C234.13790955 109.73591217 234.40472534 108.82338684 234.67962646 107.88320923 C235.93515883 103.5962468 237.20415866 99.3144594 238.5090332 95.04223633 C238.86004845 93.88221603 238.86004845 93.88221603 239.21815491 92.69876099 C239.64929404 91.27655262 240.08578023 89.85594776 240.52903748 88.43746948 C242.13840581 83.10466392 242.43870823 78.52772369 242 73 C232.82356216 70.46436144 223.60217596 70.75550548 214.17700195 70.82397461 C212.38395455 70.82941769 210.59090382 70.83384568 208.79785156 70.83734131 C204.95380009 70.84613724 201.10982128 70.86038481 197.26580238 70.87843132 C191.18476347 70.90524041 185.10384128 70.90929085 179.02275085 70.90834045 C176.93665409 70.90826477 174.85055733 70.90819905 172.76446056 70.90814304 C171.1982295 70.90806852 171.1982295 70.90806852 169.60035741 70.90799248 C155.45501772 70.90892704 141.30997828 70.92788553 127.16479492 70.99633789 C117.60470082 71.04242273 108.04513379 71.0566526 98.48494691 71.03448874 C93.43127532 71.02410597 88.37881516 71.03023649 83.32531166 71.07563591 C78.57638426 71.11814032 73.82928231 71.11889978 69.08028412 71.08778381 C67.34000566 71.08383898 65.59961297 71.09525312 63.8595562 71.12330818 C50.72707304 71.32253294 50.72707304 71.32253294 46.47591209 68.06714058 C44.67079815 65.7852056 43.33328411 63.57896719 42 61 C41.04498531 59.62982889 40.07372245 58.27066015 39.078125 56.9296875 C38.13357445 55.5794118 37.19090792 54.2278165 36.25 52.875 C32.43736113 47.43102035 28.57925206 42.0294652 24.625 36.6875 C18.4326428 28.31014162 12.488262 19.76018752 6.54785156 11.203125 C5.08758039 9.12465701 3.59027089 7.07790457 2.0859375 5.03125 C0 2 0 2 0 0 Z " fill="#006DFE" transform="translate(576,235)"/>
<path d="M0 0 C0.66 0 1.32 0 2 0 C1.35355092 5.43017226 0.13873546 10.50081916 -1.375 15.75 C-1.59905518 16.54422363 -1.82311035 17.33844727 -2.05395508 18.15673828 C-2.99900759 21.50654188 -3.95718863 24.85223754 -4.92578125 28.1953125 C-6.18024077 32.60843675 -7.18224216 36.92501257 -7.85009766 41.46655273 C-8.97491257 48.35228307 -10.78550559 54.96076052 -12.7109375 61.66015625 C-13.07945137 62.96030424 -13.44736595 64.26062222 -13.81472778 65.56109619 C-14.59211294 68.30861069 -15.37338062 71.05497657 -16.15795898 73.80044556 C-17.3908654 78.11478792 -18.61515306 82.43154555 -19.83789062 86.7487793 C-21.0692691 91.09524646 -22.30106048 95.44159237 -23.53594971 99.7870636 C-26.65317819 110.75750597 -29.72981568 121.73885144 -32.78192139 132.7276001 C-38.0928895 151.84573103 -43.51738559 170.93043679 -49 190 C-49.66 190 -50.32 190 -51 190 C-52.32 195.28 -53.64 200.56 -55 206 C-55.33 205.01 -55.66 204.02 -56 203 C-56.66 203 -57.32 203 -58 203 C-56.73993988 195.4689005 -55.10269746 188.12326181 -53.125 180.75 C-52.88136719 179.82832031 -52.63773437 178.90664063 -52.38671875 177.95703125 C-51.59592993 174.97006209 -50.79807077 171.98503123 -50 169 C-49.56312866 167.35535767 -49.56312866 167.35535767 -49.11743164 165.67749023 C-46.18051456 154.62836865 -43.19122378 143.59362488 -40.1875 132.5625 C-39.92299042 131.59088928 -39.65848083 130.61927856 -39.38595581 129.6182251 C-35.85864833 116.674063 -32.25195003 103.76240925 -28.44140625 90.8984375 C-26.86369508 85.57015685 -25.38290986 80.21728391 -23.91235352 74.85864258 C-21.89363968 67.5388536 -19.73768196 60.2601884 -17.59033203 52.97729492 C-15.72722277 46.61700785 -14.00381498 40.23629017 -12.375 33.8125 C-10.27262029 25.57897028 -7.79348824 17.48576314 -3.921875 9.8828125 C-2.53526128 7.05083024 -1.8567631 4.02722961 -1 1 C-0.67 0.67 -0.34 0.34 0 0 Z " fill="#0082FE" transform="translate(536,504)"/>
<path d="M0 0 C0.72943559 0.0023747 1.45887119 0.00474941 2.21041089 0.00719607 C4.6611246 0.01763505 7.11148039 0.04251434 9.56208801 0.06729126 C11.31619787 0.07771454 13.07031319 0.0872503 14.82443237 0.09596252 C19.59279029 0.12217117 24.3609764 0.16083676 29.12922835 0.20168638 C34.11000188 0.24225561 39.09084156 0.27144162 44.07168579 0.30181885 C53.50646753 0.36109785 62.94114449 0.43066081 72.37582713 0.50388968 C83.11566537 0.58675016 93.85556998 0.65819006 104.59549558 0.72865558 C126.69098423 0.87388251 148.78634968 1.03350061 170.88166809 1.20254517 C170.88166809 1.53254517 170.88166809 1.86254517 170.88166809 2.20254517 C169.52523083 2.20751039 169.52523083 2.20751039 168.1413908 2.21257591 C146.15902274 2.29372297 124.17672419 2.38578802 102.19445324 2.49007225 C91.56408318 2.54023836 80.93372099 2.58668077 70.30329895 2.62442017 C61.04006823 2.65731523 51.77689787 2.69713258 42.51373369 2.74533522 C37.60693857 2.77062498 32.70018361 2.79239891 27.79334068 2.80588913 C23.1780378 2.81868705 18.56287248 2.84071677 13.94764519 2.86992836 C12.25089756 2.87902194 10.55412777 2.8846985 8.85735703 2.8867588 C6.54610456 2.89006883 4.23524511 2.90551157 1.92407227 2.92407227 C0.62895312 2.92960302 -0.66616602 2.93513378 -2.0005312 2.94083214 C-5.28326939 2.96355649 -5.28326939 2.96355649 -8.11833191 5.20254517 C-9.06528393 7.33659773 -9.06528393 7.33659773 -9.68864441 9.85098267 C-9.94516785 10.77395142 -10.20169128 11.69692017 -10.46598816 12.64785767 C-10.85077332 14.09805298 -10.85077332 14.09805298 -11.24333191 15.57754517 C-11.50758972 16.53660767 -11.77184753 17.49567017 -12.04411316 18.48379517 C-12.93989569 21.74862694 -13.8262149 25.01389297 -14.63420105 28.30166626 C-15.24792916 30.71139248 -16.01921566 33.06500696 -16.78092957 35.43130493 C-19.24139775 43.08352737 -21.31472122 50.75065294 -23.12614441 58.58145142 C-24.15947915 62.35271638 -25.54851863 65.62875464 -27.11833191 69.20254517 C1.28985183 69.16531584 29.69790987 69.1053629 58.10598755 69.01864243 C71.29749241 68.97889814 84.48893801 68.94648221 97.68049622 68.93154907 C109.18339957 68.91850868 120.68617228 68.89148306 132.18900204 68.8479321 C138.27500117 68.82537111 144.3608395 68.80963127 150.44688416 68.81066132 C156.18594753 68.81141109 161.92465612 68.79333312 167.66362762 68.76137733 C169.75966522 68.75292229 171.85574281 68.75109818 173.95178986 68.75674248 C187.47643146 68.78828527 199.23668656 67.62389266 212.06912231 63.07186508 C214.88166809 62.20254517 214.88166809 62.20254517 218.88166809 62.20254517 C218.88166809 61.54254517 218.88166809 60.88254517 218.88166809 60.20254517 C219.64479309 59.85192017 220.40791809 59.50129517 221.19416809 59.14004517 C230.84833332 54.22188552 237.98496906 48.56811518 244.88166809 40.20254517 C245.76854309 39.23317017 246.65541809 38.26379517 247.56916809 37.26504517 C255.49760772 26.76521972 261.05964322 13.73029336 264.88166809 1.20254517 C266.62234845 5.30930002 264.96996818 8.6738264 263.44416809 12.57754517 C263.1719342 13.28290405 262.89970032 13.98826294 262.61921692 14.71499634 C257.90470643 26.51780311 251.36488546 36.70942096 242.88166809 46.20254517 C242.0734259 47.1519397 242.0734259 47.1519397 241.24885559 48.12051392 C227.9994076 62.66827465 206.9881937 70.48192232 187.71881104 71.58750725 C182.00761402 71.7976478 176.29717028 71.79802911 170.58283997 71.79605103 C168.4061069 71.80973088 166.22938386 71.82508957 164.05267334 71.84197998 C158.20046762 71.88231277 152.34843686 71.89834264 146.49611092 71.90884471 C140.35646482 71.92323385 134.21692493 71.95764269 128.0773468 71.98905945 C117.78899204 72.03856985 107.50067831 72.07228003 97.2122345 72.09634399 C85.30909354 72.12437243 73.40625698 72.1772818 61.50327063 72.24332708 C50.0364696 72.30642148 38.56966179 72.35257075 27.10275269 72.39074898 C22.2255435 72.40726136 17.34841385 72.42968305 12.47125244 72.45680046 C6.74525303 72.48784182 1.01940149 72.50408022 -4.70667839 72.50864029 C-6.81187012 72.51271474 -8.91705883 72.52195613 -11.02220345 72.53661919 C-13.88462621 72.55571163 -16.74646331 72.55644195 -19.6089325 72.55226135 C-20.45072823 72.56216235 -21.29252397 72.57206334 -22.15982866 72.58226436 C-24.47107697 72.56724453 -24.47107697 72.56724453 -28.11833191 72.20254517 C-30.11833191 69.20254517 -30.11833191 69.20254517 -29.80143738 67.12588501 C-29.53218445 66.31329224 -29.26293152 65.50069946 -28.98551941 64.66348267 C-28.67960876 63.70957642 -28.37369812 62.75567017 -28.05851746 61.77285767 C-27.70700623 60.71840454 -27.355495 59.66395142 -26.99333191 58.57754517 C-26.24340316 56.2532582 -25.49760917 53.92763474 -24.75505066 51.60098267 C-24.44876488 50.64527374 -24.44876488 50.64527374 -24.1362915 49.67025757 C-22.3198772 43.95368649 -20.65642423 38.19743761 -19.01286316 32.42910767 C-18.74796082 31.50367157 -18.48305847 30.57823547 -18.21012878 29.62475586 C-17.13957386 25.88354178 -16.0694686 22.14234734 -15.01841736 18.39559937 C-14.2738613 15.74497981 -13.51574888 13.09856958 -12.75505066 10.45254517 C-12.53339737 9.64846222 -12.31174408 8.84437927 -12.08337402 8.01593018 C-9.92572415 0.59443331 -7.40784464 -0.05213121 0 0 Z " fill="#0133E9" transform="translate(589.1183319091797,457.7974548339844)"/>
<path d="M0 0 C1.33220657 3.67347952 0.64287422 5.93141847 -0.58203125 9.578125 C-1.11473633 11.19654297 -1.11473633 11.19654297 -1.65820312 12.84765625 C-2.22958008 14.53181641 -2.22958008 14.53181641 -2.8125 16.25 C-5.92016894 25.48568176 -5.92016894 25.48568176 -8.46069336 34.88525391 C-9.72295738 39.83488312 -11.34820647 44.68952217 -12.875 49.5625 C-15.47437397 57.92009176 -17.98281965 66.26323735 -20.11328125 74.75390625 C-20.81151514 77.30999595 -21.58046585 79.78244918 -22.4296875 82.2890625 C-24.05428724 87.08729893 -25.44604372 91.93547312 -26.8125 96.8125 C-28.81498886 103.89398317 -30.86841171 110.95630827 -33 118 C-36.69497084 130.22988394 -40.17261749 142.52055694 -43.640625 154.81640625 C-43.91003906 155.76781494 -44.17945313 156.71922363 -44.45703125 157.69946289 C-44.97240097 159.51960022 -45.48554694 161.3403692 -45.99609375 163.16186523 C-47.14525248 167.21606232 -48.41760551 171.09097982 -50 175 C-50.144375 176.093125 -50.28875 177.18625 -50.4375 178.3125 C-50.87705 181.19399442 -51.35459984 183.15093368 -52.40234375 185.78515625 C-53.84022889 189.51971704 -55.02167601 193.2756252 -56.125 197.125 C-58.32962082 204.75400934 -60.60949827 212.35927052 -62.90390015 219.96166992 C-65.84204013 229.70041642 -68.72449034 239.44705013 -71.39404297 249.26342773 C-72.78516616 254.33913096 -74.37622467 259.32063764 -76.0859375 264.296875 C-77.50620144 268.49697179 -78.75082145 272.74661625 -80 277 C-78.64109901 276.88961143 -78.64109901 276.88961143 -77.25474548 276.7769928 C-68.05800375 276.08863702 -58.98066915 275.92930488 -49.75390625 276.12109375 C-48.36287878 276.14549179 -46.97184138 276.16932983 -45.58079529 276.19264221 C-41.97562063 276.25452299 -38.37062897 276.32384406 -34.765625 276.39489746 C-31.0645356 276.46646662 -27.3633197 276.53074735 -23.66210938 276.59570312 C-16.44126607 276.72347152 -9.22060082 276.85912689 -2 277 C-1.36287943 274.96002399 -0.72828688 272.91925836 -0.09472656 270.87817383 C0.25893982 269.74180984 0.6126062 268.60544586 0.97698975 267.43464661 C1.9141844 264.28811661 2.74460741 261.13993148 3.515625 257.94921875 C5.00697087 251.81801851 6.85026947 245.82769281 8.75 239.8125 C12.5118426 227.75618905 15.968558 215.62988467 19.32128906 203.4543457 C20.19437321 200.29711012 21.0955305 197.14838239 22 194 C22.2563623 193.09209717 22.51272461 192.18419434 22.77685547 191.2487793 C23.67799146 188.05977862 24.58860147 184.87358148 25.5 181.6875 C25.80808594 180.59115234 26.11617188 179.49480469 26.43359375 178.36523438 C26.73394531 177.32044922 27.03429687 176.27566406 27.34375 175.19921875 C27.61380859 174.24877686 27.88386719 173.29833496 28.16210938 172.3190918 C29 170 29 170 31 168 C30.31842215 174.02560324 28.81603147 179.66208278 27.1484375 185.484375 C26.85724533 186.51381729 26.56605316 187.54325958 26.26603699 188.60389709 C25.30720136 191.98732815 24.34135829 195.36871052 23.375 198.75 C22.70682771 201.09981878 22.03877924 203.44967278 21.37084961 205.79956055 C14.4074426 230.2470697 7.20978161 254.6240717 0 279 C-27.39 279 -54.78 279 -83 279 C-80.07611272 267.88922834 -77.1605984 256.86237561 -73.83984375 245.87890625 C-73.45313269 244.59057133 -73.06675605 243.30213599 -72.68067932 242.01361084 C-71.86152816 239.28141089 -71.04064062 236.54974209 -70.21826172 233.81851196 C-67.99027272 226.41789618 -65.77485236 219.01351025 -63.55859375 211.609375 C-63.32999538 210.84601145 -63.10139702 210.0826479 -62.86587143 209.29615211 C-57.90007902 192.71076513 -53.01239821 176.10273501 -48.13885498 159.49004745 C-42.3458717 139.74457097 -36.53554305 120.00532897 -30.59716797 100.30297852 C-24.69354117 80.70728902 -18.89131247 61.08131514 -13.07401752 41.45986557 C-11.39017739 35.78097297 -9.70340713 30.1029525 -8.01623535 24.42504883 C-7.05169778 21.1742386 -6.09134978 17.92221776 -5.13183594 14.66992188 C-4.5854163 12.82678442 -4.03887644 10.9836826 -3.4921875 9.140625 C-3.24937042 8.31294617 -3.00655334 7.48526733 -2.75637817 6.63250732 C-1.11364739 1.11364739 -1.11364739 1.11364739 0 0 Z " fill="#0636E4" transform="translate(269,414)"/>
<path d="M0 0 C56.43 0 112.86 0 171 0 C171 0.33 171 0.66 171 1 C88.335 1.495 88.335 1.495 4 2 C7.99328898 8.65548164 11.09494461 13.39422241 16 19 C16 19.66 16 20.32 16 21 C16.66 21 17.32 21 18 21 C18.54914062 21.99 19.09828125 22.98 19.6640625 24 C22.03372885 28.14326887 24.66640163 32.07253236 27.375 36 C27.83132813 36.67289062 28.28765625 37.34578125 28.7578125 38.0390625 C31.51215085 42.04677954 34.42302169 45.77517905 37.67773438 49.38989258 C39.06268277 51.07632808 40.08324644 52.77264571 41.125 54.6875 C42.84753108 57.73063824 44.47350103 59.6419343 47 62 C49 65 49 65 50 67 C53.68557325 68.43315678 57.64122173 68.12593472 61.53466797 68.09765625 C62.67685728 68.09549984 62.67685728 68.09549984 63.84212112 68.09329987 C65.50894181 68.08952302 67.17575844 68.08342109 68.84256363 68.07530212 C71.54941639 68.06222349 74.25622583 68.05531145 76.96310425 68.04992676 C80.88227289 68.0416189 84.80142387 68.03090905 88.72058105 68.01831055 C99.12880436 67.9859102 109.53704306 67.97375198 119.9453125 67.96875 C121.01287781 67.96820114 122.08044312 67.96765228 123.18035889 67.96708679 C147.03905727 67.96048239 170.89347982 68.19588682 194.75 68.5 C195.69988548 68.51202454 196.64977097 68.52404907 197.62844086 68.53643799 C209.08575775 68.68183347 220.54293977 68.83560655 232 69 C232 69.33 232 69.66 232 70 C208.2608593 70.21025651 184.52185816 70.3689567 160.78197384 70.46630955 C149.75903635 70.51271418 138.73667744 70.57597732 127.71411133 70.67895508 C118.10662039 70.76866977 108.49954844 70.82672611 98.89165026 70.84679645 C93.8042273 70.85852871 88.71800297 70.88609096 83.63096428 70.95157051 C78.84126975 71.01272242 74.05326576 71.03149274 69.26321793 71.01796913 C67.50676467 71.0204425 65.75025414 71.03831242 63.99413872 71.07284927 C50.73476101 71.32079622 50.73476101 71.32079622 46.4661274 68.07078362 C44.65959648 65.78732542 43.32832308 63.58367676 42 61 C41.04531329 59.62960035 40.07408999 58.27038719 39.078125 56.9296875 C38.13357445 55.5794118 37.19090792 54.2278165 36.25 52.875 C32.43736113 47.43102035 28.57925206 42.0294652 24.625 36.6875 C18.4326428 28.31014162 12.488262 19.76018752 6.54785156 11.203125 C5.08758039 9.12465701 3.59027089 7.07790457 2.0859375 5.03125 C0 2 0 2 0 0 Z " fill="#0146F0" transform="translate(576,235)"/>
<path d="M0 0 C2.87008721 3.34290504 4.04910703 6.63460235 5.375 10.8125 C5.81361706 12.17453876 6.25242401 13.53651639 6.69140625 14.8984375 C6.91070801 15.58776367 7.13000977 16.27708984 7.35595703 16.98730469 C8.31361293 19.98007013 9.31380044 22.95821445 10.3125 25.9375 C11.87610684 30.62335668 13.43472762 35.31079998 14.98828125 40 C15.70051772 42.14583437 16.41275731 44.2916677 17.125 46.4375 C17.46184814 47.45642334 17.79869629 48.47534668 18.14575195 49.52514648 C19.58161216 53.84693299 21.03145947 58.15237994 22.6484375 62.41015625 C24.00444953 66.01181826 25.10683613 69.6145654 26.15625 73.3125 C27.02861703 76.09115054 28.04735321 78.79713235 29.08105469 81.51904297 C31.11057362 86.99831273 32.97616523 92.53688118 34.875 98.0625 C35.09920624 98.71393982 35.32341248 99.36537964 35.55441284 100.03656006 C38.49943331 108.59382902 41.42158404 117.15727246 44.25732422 125.75146484 C46.04007935 131.1489582 47.83251683 136.54323141 49.625 141.9375 C50.00986572 143.10039551 50.39473145 144.26329102 50.79125977 145.46142578 C52.75013351 151.35551035 54.77078609 157.20270498 57 163 C58.44095589 166.86782896 59.2432596 169.86458672 59 174 C59.66 174 60.32 174 61 174 C61.25394531 174.83402344 61.50789063 175.66804687 61.76953125 176.52734375 C62.11371094 177.65269531 62.45789063 178.77804687 62.8125 179.9375 C63.14894531 181.03964844 63.48539062 182.14179687 63.83203125 183.27734375 C67.06820693 193.59197728 70.68316188 203.78102975 74.24023438 213.98828125 C82 236.3844485 82 236.3844485 82 241 C82.66 241 83.32 241 84 241 C84.31453125 242.12277344 84.6290625 243.24554687 84.953125 244.40234375 C86.95908678 251.45472548 88.91766264 258.31644821 92.0859375 264.94921875 C94.54629859 270.46925967 96.21498957 275.93729416 96 282 C96.99 281.67 97.98 281.34 99 281 C100.07742306 278.50623637 100.07742306 278.50623637 100.82421875 275.43359375 C101.13037109 274.30888672 101.43652344 273.18417969 101.75195312 272.02539062 C102.06068359 270.84138672 102.36941406 269.65738281 102.6875 268.4375 C103.00783203 267.24962891 103.32816406 266.06175781 103.65820312 264.83789062 C104.4501306 261.89475716 105.23014066 258.9489688 106 256 C106.66 256 107.32 256 108 256 C106.38151241 262.94765403 104.56168317 269.84020135 102.5625 276.6875 C102.36954346 277.39455078 102.17658691 278.10160156 101.9777832 278.83007812 C101.37890625 280.82421875 101.37890625 280.82421875 100 284 C97.83984375 284.95703125 97.83984375 284.95703125 96 285 C93.53427438 279.47387376 91.51485959 273.87006626 89.5859375 268.13671875 C89.25915009 267.17298843 88.93236267 266.20925812 88.59567261 265.21632385 C87.51955488 262.04090976 86.44731796 258.86419904 85.375 255.6875 C84.61716152 253.44944282 83.85901842 251.21148877 83.10058594 248.97363281 C81.52190844 244.31469679 79.94454892 239.65531771 78.36816406 234.99560547 C75.02785525 225.12458439 71.67368729 215.25827933 68.31851196 205.39230347 C67.24801643 202.24416668 66.17805052 199.09585027 65.1081543 195.94750977 C61.9040874 186.52133466 58.6948038 177.09702495 55.46484375 167.6796875 C55.18385834 166.86008545 54.90287292 166.0404834 54.6133728 165.19604492 C53.34827091 161.50656895 52.08176282 157.81759313 50.81152344 154.12988281 C47.27770655 143.84796147 43.83928227 133.53464329 40.40625 123.21875 C34.61905165 105.82910302 28.77651078 88.45853794 22.90795898 71.09619141 C21.56923544 67.13542471 20.23207886 63.17413093 18.89531136 59.2127037 C17.83341193 56.06648197 16.77064566 52.92055362 15.70757675 49.77472687 C15.18968449 48.24198126 14.67201445 46.70916055 14.15457535 45.1762619 C11.55077651 37.4648035 8.92938308 29.7609039 6.22802734 22.08300781 C5.80402145 20.87456207 5.38001556 19.66611633 4.94316101 18.42105103 C4.15883094 16.19326742 3.36915813 13.96735449 2.57307434 11.7437439 C2.05966743 10.28625229 2.05966743 10.28625229 1.53588867 8.79931641 C1.23720383 7.9625235 0.93851898 7.12573059 0.63078308 6.26358032 C0 4 0 4 0 0 Z " fill="#0639E4" transform="translate(364,490)"/>
<path d="M0 0 C1.56064328 4.00083081 0.40843728 7.01331328 -0.73828125 11.03515625 C-0.93476761 11.73448776 -1.13125397 12.43381927 -1.33369446 13.15434265 C-1.98397252 15.45981934 -2.64812537 17.76104984 -3.3125 20.0625 C-3.76631036 21.66089226 -4.21926157 23.25952868 -4.67138672 24.85839844 C-5.86006337 29.05272443 -7.06065979 33.24354415 -8.26409912 37.43365479 C-9.4807578 41.67657156 -10.68708136 45.92242414 -11.89453125 50.16796875 C-14.25153685 58.44862134 -16.62164193 66.72545521 -19 75 C-19.66 75 -20.32 75 -21 75 C-22.32 80.28 -23.64 85.56 -25 91 C-25.33 90.01 -25.66 89.02 -26 88 C-26.66 88 -27.32 88 -28 88 C-26.73994765 80.46894693 -25.10281157 73.12315596 -23.125 65.75 C-22.85961426 64.74783447 -22.59422852 63.74566895 -22.32080078 62.71313477 C-21.79189024 60.71793283 -21.26118399 58.72320589 -20.72851562 56.72900391 C-20.10053004 54.37658337 -19.47804499 52.0228517 -18.859375 49.66796875 C-18.22219444 47.2532567 -17.57811012 44.84035139 -16.92578125 42.4296875 C-16.28166264 40.04345907 -15.65535817 37.65238012 -15.04296875 35.2578125 C-13.20807694 28.34224416 -11.29321294 22.76194368 -7 17 C-6.34 16.67 -5.68 16.34 -5 16 C-4.2341835 13.90195178 -3.5601371 11.76990193 -2.9375 9.625 C-2.59589844 8.46226562 -2.25429688 7.29953125 -1.90234375 6.1015625 C-1.60457031 5.07804688 -1.30679687 4.05453125 -1 3 C-0.67 2.01 -0.34 1.02 0 0 Z " fill="#0274FD" transform="translate(506,619)"/>
<path d="M0 0 C1.12371923 3.35427661 0.86043761 5.4128754 -0.1171875 8.78540039 C-0.38970337 9.74342056 -0.66221924 10.70144073 -0.94299316 11.68849182 C-1.25055542 12.73101608 -1.55811768 13.77354034 -1.875 14.84765625 C-2.19126343 15.94806747 -2.50752686 17.0484787 -2.83337402 18.18223572 C-3.87931718 21.81184268 -4.93948736 25.43712579 -6 29.0625 C-6.72536447 31.5681409 -7.44996594 34.07400281 -8.17382812 36.58007812 C-10.24602859 43.7408759 -12.33475395 50.89675498 -14.42944336 58.0510025 C-14.99498041 59.9828533 -15.56006251 61.91483659 -16.125 63.84686279 C-20.72404677 79.5723336 -25.35758007 95.28719409 -30 111 C-57.39 111 -84.78 111 -113 111 C-107.24831081 89.14358108 -107.24831081 89.14358108 -104.6875 81.8125 C-104.42388672 81.03970703 -104.16027344 80.26691406 -103.88867188 79.47070312 C-103.26502103 77.64510701 -102.63352262 75.82219392 -102 74 C-101.67 74 -101.34 74 -101 74 C-101.4350834 82.12155683 -103.86580101 89.43693412 -106.38330078 97.10107422 C-107.66394157 101.04439332 -108.82027608 105.02566243 -110 109 C-109.09406601 108.92640762 -108.18813202 108.85281525 -107.25474548 108.7769928 C-98.05800375 108.08863702 -88.98066915 107.92930488 -79.75390625 108.12109375 C-78.36287878 108.14549179 -76.97184138 108.16932983 -75.58079529 108.19264221 C-71.97562063 108.25452299 -68.37062897 108.32384406 -64.765625 108.39489746 C-61.0645356 108.46646662 -57.3633197 108.53074735 -53.66210938 108.59570312 C-46.44126607 108.72347152 -39.22060082 108.85912689 -32 109 C-31.36287943 106.96002399 -30.72828688 104.91925836 -30.09472656 102.87817383 C-29.74106018 101.74180984 -29.3873938 100.60544586 -29.02301025 99.43464661 C-28.0858156 96.28811661 -27.25539259 93.13993148 -26.484375 89.94921875 C-24.99302913 83.81801851 -23.14973053 77.82769281 -21.25 71.8125 C-17.48814335 59.75614405 -14.03219882 47.6296422 -10.6784668 35.4543457 C-9.80565792 32.2969698 -8.90767638 29.14753178 -8 26 C-7.73832031 25.09209717 -7.47664063 24.18419434 -7.20703125 23.2487793 C-6.28669291 20.06085732 -5.36239653 16.87410228 -4.4375 13.6875 C-4.12103516 12.59115234 -3.80457031 11.49480469 -3.47851562 10.36523438 C-3.17494141 9.32044922 -2.87136719 8.27566406 -2.55859375 7.19921875 C-2.28329834 6.24877686 -2.00800293 5.29833496 -1.72436523 4.3190918 C-1 2 -1 2 0 0 Z " fill="#0429D7" transform="translate(299,582)"/>
<path d="M0 0 C9.02322493 -0.04640137 18.0464086 -0.0819088 27.06972694 -0.10362434 C31.2599065 -0.11404827 35.45000424 -0.12818201 39.64013672 -0.15087891 C43.68609798 -0.17265697 47.73198069 -0.18457909 51.77799606 -0.18975449 C53.31931163 -0.19344134 54.86062305 -0.20064084 56.40190506 -0.21146011 C58.56571901 -0.22604116 60.729211 -0.22797521 62.89306641 -0.22705078 C64.73839462 -0.23371262 64.73839462 -0.23371262 66.6210022 -0.24050903 C70.11244096 0.00800328 72.79690764 0.59562892 76 2 C77.59912109 4.85742188 77.59912109 4.85742188 78.7734375 8.46875 C78.98690826 9.10486206 79.20037903 9.74097412 79.4203186 10.3963623 C80.09451402 12.42426551 80.73454367 14.46122204 81.375 16.5 C81.8273011 17.87179654 82.28170613 19.2429013 82.73828125 20.61328125 C86 30.51457503 86 30.51457503 86 33 C85.34 33 84.68 33 84 33 C83.65066406 32.00097656 83.30132812 31.00195312 82.94140625 29.97265625 C82.48192081 28.66921795 82.02227721 27.3658354 81.5625 26.0625 C81.33240234 25.40314453 81.10230469 24.74378906 80.86523438 24.06445312 C79.88035408 20.77671378 79.88035408 20.77671378 78 18 C77.50213718 15.85013782 77.10174441 13.68839972 76.6953125 11.51953125 C75.84804544 8.44937814 74.44946327 5.82871284 73 3 C72.16766846 3.07001221 71.33533691 3.14002441 70.4777832 3.2121582 C57.95203934 4.13705318 45.44211248 4.18614061 32.88647461 4.18530273 C29.15011736 4.18752221 25.41404089 4.20583397 21.67773438 4.22460938 C19.29948017 4.22753807 16.92122457 4.22952637 14.54296875 4.23046875 C13.4274614 4.23765427 12.31195404 4.24483978 11.16264343 4.25224304 C9.61876701 4.2476281 9.61876701 4.2476281 8.04370117 4.24291992 C7.13931808 4.24434494 6.234935 4.24576996 5.30314636 4.24723816 C3 4 3 4 0 2 C0 1.34 0 0.68 0 0 Z " fill="#076CFA" transform="translate(304,303)"/>
<path d="M0 0 C0.66 0 1.32 0 2 0 C1.35355092 5.43017226 0.13873546 10.50081916 -1.375 15.75 C-1.59905518 16.54422363 -1.82311035 17.33844727 -2.05395508 18.15673828 C-2.99900759 21.50654188 -3.95718863 24.85223754 -4.92578125 28.1953125 C-6.18533269 32.62634988 -7.18976032 36.96306774 -7.86474609 41.52246094 C-8.93635607 48.08809471 -10.62779988 54.38146185 -12.4765625 60.765625 C-12.80667328 61.92503601 -13.13678406 63.08444702 -13.47689819 64.2789917 C-14.52014333 67.93777695 -15.57240456 71.59389511 -16.625 75.25 C-17.33914239 77.74852629 -18.05268968 80.24722276 -18.765625 82.74609375 C-20.50354684 88.83271201 -22.24885428 94.91717393 -24 101 C-24.33 101 -24.66 101 -25 101 C-24.438797 93.77170539 -22.80800436 87.29355263 -20.6875 80.375 C-20.05352116 78.25295227 -19.42070737 76.13055612 -18.7890625 74.0078125 C-18.48258789 72.98333008 -18.17611328 71.95884766 -17.86035156 70.90332031 C-16.7129782 67.0314236 -15.6159743 63.14840232 -14.5625 59.25 C-14.25441406 58.12078125 -13.94632813 56.9915625 -13.62890625 55.828125 C-12.85528452 52.83209778 -12.85528452 52.83209778 -13 49 C-14.485 49.495 -14.485 49.495 -16 50 C-13.99845368 36.44605043 -10.15280425 22.11891269 -3.921875 9.8828125 C-2.53526128 7.05083024 -1.8567631 4.02722961 -1 1 C-0.67 0.67 -0.34 0.34 0 0 Z " fill="#0274FC" transform="translate(536,504)"/>
<path d="M0 0 C1.33220657 3.67347952 0.64287422 5.93141847 -0.58203125 9.578125 C-0.93716797 10.65707031 -1.29230469 11.73601562 -1.65820312 12.84765625 C-2.03912109 13.97042969 -2.42003906 15.09320313 -2.8125 16.25 C-5.92016894 25.48568176 -5.92016894 25.48568176 -8.46069336 34.88525391 C-9.72295738 39.83488312 -11.34820647 44.68952217 -12.875 49.5625 C-15.47437397 57.92009176 -17.98281965 66.26323735 -20.11328125 74.75390625 C-20.81151514 77.30999595 -21.58046585 79.78244918 -22.4296875 82.2890625 C-24.05428633 87.08729627 -25.44609355 91.93545865 -26.8125 96.8125 C-29.7615433 107.24316653 -32.85775045 117.62611941 -36 128 C-36.66 127.67 -37.32 127.34 -38 127 C-36.07563669 118.07902441 -33.69272148 109.41362487 -30.91796875 100.72265625 C-30.11214058 98.16211637 -29.30759784 95.601217 -28.50537109 93.03955078 C-28.29922463 92.38228595 -28.09307817 91.72502111 -27.88068485 91.04783916 C-25.57489985 83.67669167 -23.36985726 76.27612283 -21.17578125 68.87109375 C-20.97598537 68.19731312 -20.7761895 67.52353249 -20.5703392 66.82933426 C-19.35282544 62.72235043 -18.13795758 58.6145883 -16.92407227 54.50653076 C-15.89782637 51.03460366 -14.86979408 47.56320576 -13.84179688 44.09179688 C-13.53900723 43.06918731 -13.53900723 43.06918731 -13.23010063 42.02591896 C-11.50047029 36.18479535 -9.76932217 30.34412228 -8.03765869 24.50360107 C-7.06228164 21.21029075 -6.09028886 17.91599739 -5.11865234 14.62158203 C-4.57278123 12.78021708 -4.02673474 10.9389041 -3.48046875 9.09765625 C-3.23839188 8.2726915 -2.996315 7.44772675 -2.74690247 6.59776306 C-1.11395779 1.11395779 -1.11395779 1.11395779 0 0 Z " fill="#0643EC" transform="translate(269,414)"/>
<path d="M0 0 C1.1007394 3.31236994 0.88102167 5.34579153 -0.07983398 8.67675781 C-0.34017929 9.59741028 -0.6005246 10.51806274 -0.86875916 11.46661377 C-1.15827957 12.45216248 -1.44779999 13.43771118 -1.74609375 14.453125 C-2.18103905 15.97616241 -2.18103905 15.97616241 -2.62477112 17.52996826 C-3.55312468 20.77271107 -4.49512138 24.01130841 -5.4375 27.25 C-6.0692618 29.44765745 -6.70013226 31.64557134 -7.33007812 33.84375 C-8.87638769 39.23218521 -10.43391733 44.61728048 -12 50 C-12.66 50 -13.32 50 -14 50 C-15.32 55.28 -16.64 60.56 -18 66 C-18.33 65.01 -18.66 64.02 -19 63 C-19.66 63 -20.32 63 -21 63 C-19.93122906 55.90144676 -18.32928881 48.95191555 -16.5625 42 C-16.35729736 41.16299561 -16.15209473 40.32599121 -15.94067383 39.46362305 C-15.73466553 38.67125244 -15.52865723 37.87888184 -15.31640625 37.0625 C-15.13537354 36.35222656 -14.95434082 35.64195312 -14.76782227 34.91015625 C-13.8851399 32.71425582 -12.76362626 31.55012027 -11 30 C-10.67 31.32 -10.34 32.64 -10 34 C-9.20798823 31.31260128 -8.41638134 28.62508437 -7.625 25.9375 C-7.40328125 25.18533203 -7.1815625 24.43316406 -6.953125 23.65820312 C-5.93585082 20.20246289 -4.92715446 16.74504062 -3.9375 13.28125 C-3.10510412 10.36786443 -2.2492845 7.46353492 -1.375 4.5625 C-1.11460937 3.69753906 -0.85421875 2.83257813 -0.5859375 1.94140625 C-0.39257812 1.30074219 -0.19921875 0.66007813 0 0 Z " fill="#0365FA" transform="translate(499,644)"/>
<path d="M0 0 C1.74068036 4.10675486 0.08830009 7.47128123 -1.4375 11.375 C-1.84585083 12.43303833 -1.84585083 12.43303833 -2.26245117 13.51245117 C-6.97696166 25.31525795 -13.51678263 35.5068758 -22 45 C-22.53882813 45.63292969 -23.07765625 46.26585937 -23.6328125 46.91796875 C-33.75507475 58.03211097 -48.80073496 65.01174831 -63.1875 68.3125 C-63.93612305 68.48434814 -64.68474609 68.65619629 -65.45605469 68.83325195 C-70.39608364 69.87741922 -74.95269216 70.15433444 -80 70 C-77.71177366 67.71177366 -76.81740383 67.58728084 -73.7109375 67.03515625 C-72.42123047 66.79442383 -72.42123047 66.79442383 -71.10546875 66.54882812 C-69.75388672 66.3080957 -69.75388672 66.3080957 -68.375 66.0625 C-63.29574127 65.15628864 -58.41487559 64.27120321 -53.6015625 62.37109375 C-50 61 -50 61 -46 61 C-46 60.34 -46 59.68 -46 59 C-44.8553125 58.4740625 -44.8553125 58.4740625 -43.6875 57.9375 C-34.03333477 53.01934036 -26.89669903 47.36557002 -20 39 C-19.113125 38.030625 -18.22625 37.06125 -17.3125 36.0625 C-9.38406038 25.56267455 -3.82202487 12.52774819 0 0 Z " fill="#0550F2" transform="translate(854,459)"/>
<path d="M0 0 C12.05000519 4.8522527 21.84127854 13.3809667 27.2109375 25.29296875 C29.77035485 32.7174822 30.72886382 39.65163713 30.6484375 47.48046875 C30.64521484 48.46990479 30.64199219 49.45934082 30.63867188 50.47875977 C30.47555684 59.16815081 28.88888989 67.05587414 26.2109375 75.29296875 C25.5509375 75.29296875 24.8909375 75.29296875 24.2109375 75.29296875 C24.5409375 71.99296875 24.8709375 68.69296875 25.2109375 65.29296875 C25.5409375 65.29296875 25.8709375 65.29296875 26.2109375 65.29296875 C28.57239711 53.40133285 28.53548066 42.30846741 27.2109375 30.29296875 C26.5509375 30.29296875 25.8909375 30.29296875 25.2109375 30.29296875 C25.05625 29.24109375 25.05625 29.24109375 24.8984375 28.16796875 C23.60312483 22.75120668 21.71897917 19.47511581 17.2109375 16.29296875 C16.1590625 14.90078125 16.1590625 14.90078125 15.0859375 13.48046875 C9.33590033 6.41563649 -0.20522033 2.630353 -8.7890625 0.29296875 C-12.2509113 -0.04946144 -12.2509113 -0.04946144 -14.7890625 0.29296875 C-14.7890625 -0.36703125 -14.7890625 -1.02703125 -14.7890625 -1.70703125 C-17.0990625 -1.37703125 -19.4090625 -1.04703125 -21.7890625 -0.70703125 C-22.1190625 -1.36703125 -22.4490625 -2.02703125 -22.7890625 -2.70703125 C-16.43190243 -5.88561129 -6.30323643 -2.07363004 0 0 Z " fill="#089EFA" transform="translate(870.7890625,238.70703125)"/>
<path d="M0 0 C1.12371923 3.35427661 0.86043761 5.4128754 -0.1171875 8.78540039 C-0.38970337 9.74342056 -0.66221924 10.70144073 -0.94299316 11.68849182 C-1.25055542 12.73101608 -1.55811768 13.77354034 -1.875 14.84765625 C-2.19126343 15.94806747 -2.50752686 17.0484787 -2.83337402 18.18223572 C-3.87931718 21.81184268 -4.93948736 25.43712579 -6 29.0625 C-6.72536447 31.5681409 -7.44996594 34.07400281 -8.17382812 36.58007812 C-10.24602859 43.7408759 -12.33475395 50.89675498 -14.42944336 58.0510025 C-14.99498041 59.9828533 -15.56006251 61.91483659 -16.125 63.84686279 C-20.72402615 79.57226313 -25.34849427 95.29004501 -30 111 C-30.66 111 -31.32 111 -32 111 C-31.80664062 110.23816406 -31.61328125 109.47632813 -31.4140625 108.69140625 C-30.20840792 103.91056805 -29.00979048 99.13895621 -28 94.3125 C-27.37211007 91.43104473 -26.59962138 88.67489987 -25.640625 85.88671875 C-23.91607526 80.78562172 -22.31856786 75.65097737 -20.75 70.5 C-20.45134033 69.51966797 -20.15268066 68.53933594 -19.8449707 67.52929688 C-16.63103244 56.89954649 -13.65509005 46.20521879 -10.69458008 35.50268555 C-9.81402612 32.32990573 -8.91192944 29.16390786 -8 26 C-7.73840088 25.09233887 -7.47680176 24.18467773 -7.20727539 23.24951172 C-6.28683484 20.06135172 -5.36246818 16.87434913 -4.4375 13.6875 C-4.12103516 12.59115234 -3.80457031 11.49480469 -3.47851562 10.36523438 C-3.17494141 9.32044922 -2.87136719 8.27566406 -2.55859375 7.19921875 C-2.28329834 6.24877686 -2.00800293 5.29833496 -1.72436523 4.3190918 C-1 2 -1 2 0 0 Z " fill="#053EEA" transform="translate(299,582)"/>
<path d="M0 0 C2.87008721 3.34290504 4.04910703 6.63460235 5.375 10.8125 C5.81361706 12.17453876 6.25242401 13.53651639 6.69140625 14.8984375 C6.91070801 15.58776367 7.13000977 16.27708984 7.35595703 16.98730469 C8.31361293 19.98007013 9.31380044 22.95821445 10.3125 25.9375 C11.87610684 30.62335668 13.43472762 35.31079998 14.98828125 40 C15.70051772 42.14583437 16.41275731 44.2916677 17.125 46.4375 C17.46184814 47.45642334 17.79869629 48.47534668 18.14575195 49.52514648 C19.57974421 53.84131065 21.02722124 58.14173879 22.640625 62.39453125 C23.74816364 65.33205471 24.74146733 68.24016342 25.625 71.25 C25.86476563 72.05953125 26.10453125 72.8690625 26.3515625 73.703125 C26.94182754 75.79394335 27.48679993 77.88910161 28 80 C27.01 80.495 27.01 80.495 26 81 C25.80700821 80.41880402 25.61401642 79.83760803 25.41517639 79.23880005 C23.36072035 73.05288691 21.30422474 66.86765434 19.24630737 60.68289185 C18.45953982 58.31828935 17.6730189 55.95360478 16.88674927 53.58883667 C9.78708388 32.23955961 9.78708388 32.23955961 2.33813477 11.01025391 C2.01901123 10.11097168 1.6998877 9.21168945 1.37109375 8.28515625 C1.10224365 7.54144775 0.83339355 6.79773926 0.55639648 6.03149414 C0 4 0 4 0 0 Z " fill="#0441EC" transform="translate(364,490)"/>
<path d="M0 0 C1.38474087 3.77042382 0.59551764 6.32216324 -0.50708008 10.11376953 C-0.86107376 11.34829865 -1.21506744 12.58282776 -1.57978821 13.85476685 C-1.97596372 15.19756843 -2.37255472 16.5402475 -2.76953125 17.8828125 C-3.17041576 19.26216157 -3.57060852 20.64171185 -3.97013855 22.02145386 C-4.80887845 24.90989032 -5.65443335 27.79621443 -6.50512695 30.68115234 C-7.59586858 34.38138461 -8.67190914 38.08569289 -9.74319935 41.79159737 C-10.56775258 44.63945569 -11.39883063 47.48537592 -12.23203087 50.33071518 C-12.63127066 51.69617917 -13.02875046 53.06215902 -13.42444801 54.42865372 C-13.9780816 56.33599671 -14.54118504 58.24058329 -15.10473633 60.14501953 C-15.42307938 61.22993683 -15.74142242 62.31485413 -16.06941223 63.43264771 C-17 66 -17 66 -19 68 C-17.41060802 55.65883875 -13.37218806 43.7989063 -9.72167969 31.94067383 C-7.32831681 24.1481054 -5.06241415 16.32429128 -2.86572266 8.47412109 C-2.6341748 7.65121582 -2.40262695 6.82831055 -2.1640625 5.98046875 C-1.86169678 4.89608521 -1.86169678 4.89608521 -1.55322266 3.78979492 C-1 2 -1 2 0 0 Z " fill="#0346EF" transform="translate(319,513)"/>
<path d="M0 0 C1.13519902 3.40559707 0.8373325 4.44540706 -0.07421875 7.83203125 C-0.3278418 8.78964355 -0.58146484 9.74725586 -0.84277344 10.73388672 C-1.1215332 11.7498291 -1.40029297 12.76577148 -1.6875 13.8125 C-1.9649707 14.84391113 -2.24244141 15.87532227 -2.52832031 16.93798828 C-3.08624848 19.00387409 -3.64820466 21.06867665 -4.21435547 23.13232422 C-4.89531882 25.61790395 -5.56208619 28.10660439 -6.22265625 30.59765625 C-8.13932995 37.64489378 -8.13932995 37.64489378 -9 40 C-9.99 40.495 -9.99 40.495 -11 41 C-10.42555275 35.58598502 -9.47555783 30.49220407 -7.96875 25.25390625 C-7.77277222 24.55732407 -7.57679443 23.86074188 -7.37487793 23.14305115 C-6.96411359 21.6877633 -6.55055185 20.23326231 -6.13427734 18.77954102 C-5.49520076 16.54572481 -4.86611645 14.30926442 -4.23828125 12.07226562 C-3.8365166 10.65348172 -3.43419334 9.23485585 -3.03125 7.81640625 C-2.84268433 7.14670303 -2.65411865 6.47699982 -2.45983887 5.78700256 C-1.11582711 1.11582711 -1.11582711 1.11582711 0 0 Z " fill="#024AF3" transform="translate(466,479)"/>
<path d="M0 0 C0.66 0.99 1.32 1.98 2 3 C1.38292995 4.85121016 0.73983089 6.69691591 -0.015625 8.49609375 C-1.16970125 11.43166072 -2.00949064 14.40467007 -2.875 17.4375 C-4.56524167 23.02179844 -6.59173012 28.22378506 -10 33 C-10.99 33.495 -10.99 33.495 -12 34 C-10.74242698 30.07152648 -9.3023966 26.32862931 -7.625 22.5625 C-5.04024528 16.47532617 -3.37954085 10.35904435 -1.796875 3.95703125 C-1 1 -1 1 0 0 Z " fill="#025BF7" transform="translate(791,414)"/>
<path d="M0 0 C0.66 0 1.32 0 2 0 C0.38151241 6.94765403 -1.43831683 13.84020135 -3.4375 20.6875 C-3.63045654 21.39455078 -3.82341309 22.10160156 -4.0222168 22.83007812 C-4.62109375 24.82421875 -4.62109375 24.82421875 -6 28 C-8.16015625 28.95703125 -8.16015625 28.95703125 -10 29 C-10.66 27.35 -11.32 25.7 -12 24 C-11.34 24 -10.68 24 -10 24 C-10 24.66 -10 25.32 -10 26 C-9.01 25.67 -8.02 25.34 -7 25 C-5.92257694 22.50623637 -5.92257694 22.50623637 -5.17578125 19.43359375 C-4.86962891 18.30888672 -4.56347656 17.18417969 -4.24804688 16.02539062 C-3.93931641 14.84138672 -3.63058594 13.65738281 -3.3125 12.4375 C-2.99216797 11.24962891 -2.67183594 10.06175781 -2.34179688 8.83789062 C-1.5498694 5.89475716 -0.76985934 2.9489688 0 0 Z " fill="#0D45E2" transform="translate(470,746)"/>
<path d="M0 0 C0.33 0 0.66 0 1 0 C1.50204748 12.04913942 0.52397423 22.45269159 -3 34 C-3.66 34 -4.32 34 -5 34 C-4.67 30.7 -4.34 27.4 -4 24 C-3.67 24 -3.34 24 -3 24 C-1.54147036 16.01348818 -0.54576903 8.10036134 0 0 Z " fill="#0791F9" transform="translate(900,280)"/>
<path d="M0 0 C1.14913329 3.39929433 0.83440508 5.5273075 -0.14453125 8.94921875 C-0.54188477 10.34430664 -0.54188477 10.34430664 -0.94726562 11.76757812 C-1.23279297 12.73115234 -1.51832031 13.69472656 -1.8125 14.6875 C-2.08642578 15.66267578 -2.36035156 16.63785156 -2.64257812 17.64257812 C-4.19685592 22.9986865 -4.19685592 22.9986865 -5 25 C-5.66 25.33 -6.32 25.66 -7 26 C-5.57688129 17.07194392 -3.98944102 8.16885543 0 0 Z " fill="#034DF2" transform="translate(331,472)"/>
<path d="M0 0 C2.26546852 3.39820279 3.38901628 6.83942278 4.625 10.6875 C4.85445313 11.38939453 5.08390625 12.09128906 5.3203125 12.81445312 C5.88429209 14.54164062 6.44269339 16.27064782 7 18 C6.34 18.66 5.68 19.32 5 20 C4.74605469 19.21496094 4.49210937 18.42992187 4.23046875 17.62109375 C2.37550567 11.95894051 0.46602288 6.42525034 -2 1 C-1.34 0.67 -0.68 0.34 0 0 Z " fill="#0165FA" transform="translate(421,425)"/>
<path d="M0 0 C0.99 0 1.98 0 3 0 C4.65 4.95 6.3 9.9 8 15 C7.01 15.33 6.02 15.66 5 16 C4.896875 15.13375 4.79375 14.2675 4.6875 13.375 C3.96268891 9.81683648 2.6719058 7.20448611 1 4 C0.3125 1.625 0.3125 1.625 0 0 Z " fill="#0270FA" transform="translate(397,363)"/>
<path d="M0 0 C0.66 0.33 1.32 0.66 2 1 C0.515 7.435 0.515 7.435 -1 14 C-1.66 13.34 -2.32 12.68 -3 12 C-2.5390625 9.1796875 -2.5390625 9.1796875 -1.625 5.875 C-1.32851563 4.77929688 -1.03203125 3.68359375 -0.7265625 2.5546875 C-0.48679687 1.71164062 -0.24703125 0.86859375 0 0 Z " fill="#048BFB" transform="translate(894,315)"/>
<path d="M0 0 C4.00972202 3.67557852 6.45335415 7.18966896 9 12 C7.171875 11.77734375 7.171875 11.77734375 5 11 C3.515625 9.00390625 3.515625 9.00390625 2.25 6.5625 C1.82203125 5.75941406 1.3940625 4.95632813 0.953125 4.12890625 C0 2 0 2 0 0 Z " fill="#026AFB" transform="translate(577,284)"/>
<path d="M0 0 C0.99 0.33 1.98 0.66 3 1 C2.53199289 5.05606165 2.12046792 8.46588679 0 12 C-0.66 11.34 -1.32 10.68 -2 10 C-1.34 10 -0.68 10 0 10 C0 6.7 0 3.4 0 0 Z " fill="#056CFA" transform="translate(592,307)"/>
<path d="M0 0 C2.00993705 3.01490557 2.72623341 5.2149927 3.625 8.6875 C3.88539063 9.68136719 4.14578125 10.67523438 4.4140625 11.69921875 C4.60742188 12.45847656 4.80078125 13.21773438 5 14 C2.35507692 12.67753846 2.02166213 11.35464102 0.8125 8.6875 C0.26529297 7.51767578 0.26529297 7.51767578 -0.29296875 6.32421875 C-1.07807525 3.7433438 -0.89937661 2.50336038 0 0 Z " fill="#026AF9" transform="translate(409,391)"/>
<path d="M0 0 C0.66 0 1.32 0 2 0 C1.34 2.97 0.68 5.94 0 9 C-0.66 8.67 -1.32 8.34 -2 8 C-2.125 5.125 -2.125 5.125 -2 2 C-1.34 1.34 -0.68 0.68 0 0 Z " fill="#0484FA" transform="translate(890,330)"/>
<path d="M0 0 C0.66 0.33 1.32 0.66 2 1 C-1.56430755 4.14985318 -4.40693504 6.5140084 -9 8 C-9 7.34 -9 6.68 -9 6 C-7.03125 4.4921875 -7.03125 4.4921875 -4.5 2.875 C-3.6646875 2.33617187 -2.829375 1.79734375 -1.96875 1.2421875 C-1.3190625 0.83226562 -0.669375 0.42234375 0 0 Z " fill="#0256F6" transform="translate(777,449)"/>
<path d="M0 0 C0.66 0.33 1.32 0.66 2 1 C1.01 4.96 0.02 8.92 -1 13 C-1.33 13 -1.66 13 -2 13 C-1.85915204 11.20793453 -1.71216299 9.41635083 -1.5625 7.625 C-1.48128906 6.62726563 -1.40007813 5.62953125 -1.31640625 4.6015625 C-1 2 -1 2 0 0 Z " fill="#037DFB" transform="translate(887,340)"/>
<path d="M0 0 C0.66 0.66 1.32 1.32 2 2 C1.34 2 0.68 2 0 2 C0 1.34 0 0.68 0 0 Z " fill="#1051F4" transform="translate(409,631)"/>
<path d="" fill="#1053F6" transform="translate(0,0)"/>
<path d="M0 0 C2 1 2 1 2 1 Z " fill="#1150F5" transform="translate(417,656)"/>
<path d="" fill="#0B57F8" transform="translate(0,0)"/>
<path d="M0 0 C2 1 2 1 2 1 Z " fill="#1264FA" transform="translate(626,457)"/>
<path d="" fill="#0868FC" transform="translate(0,0)"/>
<path d="" fill="#0B62FE" transform="translate(0,0)"/>
<path d="" fill="#1569F9" transform="translate(0,0)"/>
<path d="M0 0 C2 1 2 1 2 1 Z " fill="#137FF8" transform="translate(694,233)"/>
<path d="" fill="#434444" transform="translate(0,0)"/>
<path d="" fill="#4B4A4E" transform="translate(0,0)"/>
<path d="" fill="#134EEC" transform="translate(0,0)"/>
<path d="" fill="#135BF5" transform="translate(0,0)"/>
<path d="" fill="#1761F0" transform="translate(0,0)"/>
<path d="" fill="#1151F0" transform="translate(0,0)"/>
<path d="" fill="#1564F2" transform="translate(0,0)"/>
<path d="" fill="#1649E7" transform="translate(0,0)"/>
<path d="" fill="#1E46D8" transform="translate(0,0)"/>
<path d="" fill="#174AE9" transform="translate(0,0)"/>
<path d="" fill="#1D45D7" transform="translate(0,0)"/>
<path d="" fill="#1F4AD8" transform="translate(0,0)"/>
<path d="" fill="#1F48DC" transform="translate(0,0)"/>
<path d="" fill="#134FF2" transform="translate(0,0)"/>
<path d="" fill="#1969F4" transform="translate(0,0)"/>
<path d="" fill="#104CF6" transform="translate(0,0)"/>
<path d="" fill="#1848EA" transform="translate(0,0)"/>
<path d="" fill="#1051F3" transform="translate(0,0)"/>
<path d="" fill="#1970F6" transform="translate(0,0)"/>
<path d="" fill="#0E4DF4" transform="translate(0,0)"/>
<path d="" fill="#1050F3" transform="translate(0,0)"/>
<path d="" fill="#0E50F8" transform="translate(0,0)"/>
<path d="" fill="#0B53F6" transform="translate(0,0)"/>
<path d="" fill="#0D52F7" transform="translate(0,0)"/>
<path d="" fill="#1773F9" transform="translate(0,0)"/>
<path d="" fill="#0D53F8" transform="translate(0,0)"/>
<path d="" fill="#1670F8" transform="translate(0,0)"/>
<path d="" fill="#0C54F9" transform="translate(0,0)"/>
<path d="" fill="#0E55F7" transform="translate(0,0)"/>
<path d="" fill="#0D56FC" transform="translate(0,0)"/>
<path d="" fill="#1569F8" transform="translate(0,0)"/>
<path d="" fill="#0B58F8" transform="translate(0,0)"/>
<path d="" fill="#0C5BFB" transform="translate(0,0)"/>
<path d="" fill="#0A57F8" transform="translate(0,0)"/>
<path d="" fill="#0F59FB" transform="translate(0,0)"/>
<path d="" fill="#0C5CFA" transform="translate(0,0)"/>
<path d="" fill="#0A5FFA" transform="translate(0,0)"/>
<path d="" fill="#0E63FF" transform="translate(0,0)"/>
<path d="" fill="#1372FC" transform="translate(0,0)"/>
<path d="" fill="#0E6BFB" transform="translate(0,0)"/>
<path d="" fill="#1066FB" transform="translate(0,0)"/>
<path d="" fill="#126AFA" transform="translate(0,0)"/>
<path d="" fill="#1366FC" transform="translate(0,0)"/>
<path d="" fill="#1261FC" transform="translate(0,0)"/>
<path d="" fill="#0B68FD" transform="translate(0,0)"/>
<path d="" fill="#0964FF" transform="translate(0,0)"/>
<path d="" fill="#0C6AFE" transform="translate(0,0)"/>
<path d="" fill="#107FFD" transform="translate(0,0)"/>
<path d="" fill="#1261F6" transform="translate(0,0)"/>
<path d="" fill="#1065FA" transform="translate(0,0)"/>
<path d="" fill="#0F66FB" transform="translate(0,0)"/>
<path d="" fill="#0C70FF" transform="translate(0,0)"/>
<path d="" fill="#0979FE" transform="translate(0,0)"/>
<path d="" fill="#0F87FE" transform="translate(0,0)"/>
<path d="" fill="#0D71FF" transform="translate(0,0)"/>
<path d="" fill="#128FFF" transform="translate(0,0)"/>
<path d="" fill="#0B76FE" transform="translate(0,0)"/>
<path d="" fill="#0B7EFE" transform="translate(0,0)"/>
<path d="" fill="#0A84FD" transform="translate(0,0)"/>
<path d="" fill="#0F6EF7" transform="translate(0,0)"/>
<path d="" fill="#0B76FF" transform="translate(0,0)"/>
<path d="" fill="#1870F4" transform="translate(0,0)"/>
<path d="" fill="#0F79FB" transform="translate(0,0)"/>
<path d="" fill="#0B63FF" transform="translate(0,0)"/>
<path d="" fill="#0960F9" transform="translate(0,0)"/>
<path d="" fill="#0960FD" transform="translate(0,0)"/>
<path d="" fill="#0A60FC" transform="translate(0,0)"/>
<path d="" fill="#0B60FC" transform="translate(0,0)"/>
<path d="" fill="#1BA7FC" transform="translate(0,0)"/>
<path d="" fill="#17A2F9" transform="translate(0,0)"/>
<path d="" fill="#16A0F7" transform="translate(0,0)"/>
<path d="" fill="#169DF9" transform="translate(0,0)"/>
<path d="" fill="#169CF8" transform="translate(0,0)"/>
<path d="" fill="#1498F9" transform="translate(0,0)"/>
<path d="" fill="#1497F9" transform="translate(0,0)"/>
<path d="" fill="#159AFB" transform="translate(0,0)"/>
<path d="" fill="#118BF9" transform="translate(0,0)"/>
<path d="" fill="#1285F8" transform="translate(0,0)"/>
<path d="" fill="#1582F9" transform="translate(0,0)"/>
<path d="" fill="#1380F8" transform="translate(0,0)"/>
<path d="" fill="#1381FA" transform="translate(0,0)"/>
<path d="" fill="#157BF9" transform="translate(0,0)"/>
<path d="" fill="#1577F9" transform="translate(0,0)"/>
<path d="" fill="#1477F6" transform="translate(0,0)"/>
<path d="" fill="#1573F7" transform="translate(0,0)"/>
<path d="" fill="#166FF8" transform="translate(0,0)"/>
<path d="" fill="#1E73F4" transform="translate(0,0)"/>
<path d="" fill="#535A60" transform="translate(0,0)"/>
<path d="" fill="#4D5051" transform="translate(0,0)"/>
</svg>
